<?xml version="1.0" encoding="UTF-8" standalone="no"?>
<!-- Created with Inkscape (http://www.inkscape.org/) -->

<svg
   xmlns:dc="http://purl.org/dc/elements/1.1/"
   xmlns:cc="http://creativecommons.org/ns#"
   xmlns:rdf="http://www.w3.org/1999/02/22-rdf-syntax-ns#"
   xmlns:svg="http://www.w3.org/2000/svg"
   xmlns="http://www.w3.org/2000/svg"
   xmlns:sodipodi="http://sodipodi.sourceforge.net/DTD/sodipodi-0.dtd"
   xmlns:inkscape="http://www.inkscape.org/namespaces/inkscape"
   width="744.09448819"
   height="1052.3622047"
   id="svg3023"
   version="1.1"
   inkscape:version="0.48.4 r9939"
   sodipodi:docname="New document 1">
  <defs
     id="defs3025" />
  <sodipodi:namedview
     id="base"
     pagecolor="#ffffff"
     bordercolor="#666666"
     borderopacity="1.0"
     inkscape:pageopacity="0.0"
     inkscape:pageshadow="2"
     inkscape:zoom="0.35"
     inkscape:cx="375"
     inkscape:cy="520"
     inkscape:document-units="px"
     inkscape:current-layer="layer1"
     showgrid="false"
     inkscape:window-width="1311"
     inkscape:window-height="771"
     inkscape:window-x="0"
     inkscape:window-y="0"
     inkscape:window-maximized="1" />
  <metadata
     id="metadata3028">
    <rdf:RDF>
      <cc:Work
         rdf:about="">
        <dc:format>image/svg+xml</dc:format>
        <dc:type
           rdf:resource="http://purl.org/dc/dcmitype/StillImage" />
        <dc:title></dc:title>
      </cc:Work>
    </rdf:RDF>
  </metadata>
  <g
     inkscape:label="Layer 1"
     inkscape:groupmode="layer"
     id="layer1">
    <g
       transform="translate(22.237142,37.099327)"
       id="g4">
      <polygon
         style="fill:none;stroke:#000000;stroke-width:0.89999998"
         points="21.24,280.62 0,280.62 0,235.62 21.24,235.62 21.24,190.62 0,190.62 0,145.62 21.24,145.62 21.24,72.81 0,72.81 0,0 61.56,0 61.56,21.24 123.12,21.24 123.12,0 168.12,0 168.12,21.24 213.12,21.24 213.12,0 258.12,0 258.12,21.24 303.12,21.24 303.12,0 348.12,0 348.12,21.24 393.12,21.24 393.12,0 438.12,0 438.12,21.24 499.68,21.24 499.68,0 561.24,0 561.24,72.81 540,72.81 540,145.62 561.24,145.62 561.24,190.62 540,190.62 540,235.62 561.24,235.62 561.24,280.62 540,280.62 540,325.62 561.24,325.62 561.24,370.62 540,370.62 540,443.43 561.24,443.43 561.24,516.24 499.68,516.24 499.68,495 438.12,495 438.12,516.24 393.12,516.24 393.12,495 348.12,495 348.12,516.24 303.12,516.24 303.12,495 258.12,495 258.12,516.24 213.12,516.24 213.12,495 168.12,495 168.12,516.24 123.12,516.24 123.12,495 61.56,495 61.56,516.24 0,516.24 0,443.43 21.24,443.43 21.24,370.62 0,370.62 0,325.62 21.24,325.62 "
         id="polygon6" />
    </g>
  </g>
</svg>
