<?xml version="1.0" encoding="UTF-8" standalone="no"?>
<!-- Created with Inkscape (http://www.inkscape.org/) -->

<svg
   xmlns:dc="http://purl.org/dc/elements/1.1/"
   xmlns:cc="http://creativecommons.org/ns#"
   xmlns:rdf="http://www.w3.org/1999/02/22-rdf-syntax-ns#"
   xmlns:svg="http://www.w3.org/2000/svg"
   xmlns="http://www.w3.org/2000/svg"
   xmlns:sodipodi="http://sodipodi.sourceforge.net/DTD/sodipodi-0.dtd"
   xmlns:inkscape="http://www.inkscape.org/namespaces/inkscape"
   width="744.09448819"
   height="1052.3622047"
   id="svg3079"
   version="1.1"
   inkscape:version="0.48.4 r9939"
   sodipodi:docname="New document 5">
  <defs
     id="defs3081" />
  <sodipodi:namedview
     id="base"
     pagecolor="#ffffff"
     bordercolor="#666666"
     borderopacity="1.0"
     inkscape:pageopacity="0.0"
     inkscape:pageshadow="2"
     inkscape:zoom="1.4"
     inkscape:cx="340.50294"
     inkscape:cy="844.5184"
     inkscape:document-units="px"
     inkscape:current-layer="layer1"
     showgrid="false"
     inkscape:window-width="1311"
     inkscape:window-height="771"
     inkscape:window-x="0"
     inkscape:window-y="0"
     inkscape:window-maximized="1" />
  <metadata
     id="metadata3084">
    <rdf:RDF>
      <cc:Work
         rdf:about="">
        <dc:format>image/svg+xml</dc:format>
        <dc:type
           rdf:resource="http://purl.org/dc/dcmitype/StillImage" />
        <dc:title></dc:title>
      </cc:Work>
    </rdf:RDF>
  </metadata>
  <g
     inkscape:label="Layer 1"
     inkscape:groupmode="layer"
     id="layer1">
    <g
       transform="matrix(0,-1,1,0,116.16572,1004.4107)"
       id="g16">
      <polygon
         style="fill:none;stroke:#000000;stroke-width:0.89999998"
         points="859.68,21.24 859.68,0 900,0 900,72.81 921.24,72.81 921.24,145.62 900,145.62 900,190.62 921.24,190.62 921.24,235.62 900,235.62 900,280.62 921.24,280.62 921.24,325.62 900,325.62 900,370.62 921.24,370.62 921.24,443.43 900,443.43 900,516.24 859.68,516.24 859.68,495 798.12,495 798.12,516.24 753.12,516.24 753.12,495 708.12,495 708.12,516.24 663.12,516.24 663.12,495 618.12,495 618.12,516.24 573.12,516.24 573.12,495 528.12,495 528.12,516.24 483.12,516.24 483.12,495 438.12,495 438.12,516.24 393.12,516.24 393.12,495 348.12,495 348.12,516.24 303.12,516.24 303.12,495 258.12,495 258.12,516.24 213.12,516.24 213.12,495 168.12,495 168.12,516.24 123.12,516.24 123.12,495 61.56,495 61.56,516.24 21.24,516.24 21.24,443.43 0,443.43 0,370.62 21.24,370.62 21.24,325.62 0,325.62 0,280.62 21.24,280.62 21.24,235.62 0,235.62 0,190.62 21.24,190.62 21.24,145.62 0,145.62 0,72.81 21.24,72.81 21.24,0 61.56,0 61.56,21.24 123.12,21.24 123.12,0 168.12,0 168.12,21.24 213.12,21.24 213.12,0 258.12,0 258.12,21.24 303.12,21.24 303.12,0 348.12,0 348.12,21.24 393.12,21.24 393.12,0 438.12,0 438.12,21.24 483.12,21.24 483.12,0 528.12,0 528.12,21.24 573.12,21.24 573.12,0 618.12,0 618.12,21.24 663.12,21.24 663.12,0 708.12,0 708.12,21.24 753.12,21.24 753.12,0 798.12,0 798.12,21.24 "
         id="polygon18" />
    </g>
    <rect
       style="fill:#000000;fill-opacity:0.15384617;stroke:#ffff00;stroke-opacity:1"
       id="rect3096"
       width="516.42859"
       height="23.571428"
       x="116.42857"
       y="80.933609" />
  </g>
</svg>
