<?xml version="1.0" encoding="UTF-8" standalone="no"?>
<svg
   xmlns:dc="http://purl.org/dc/elements/1.1/"
   xmlns:cc="http://creativecommons.org/ns#"
   xmlns:rdf="http://www.w3.org/1999/02/22-rdf-syntax-ns#"
   xmlns:svg="http://www.w3.org/2000/svg"
   xmlns="http://www.w3.org/2000/svg"
   xmlns:sodipodi="http://sodipodi.sourceforge.net/DTD/sodipodi-0.dtd"
   xmlns:inkscape="http://www.inkscape.org/namespaces/inkscape"
   version="1.1"
   width="1620"
   height="1080"
   viewBox="0 0 1620 1079.9999"
   id="svg2"
   inkscape:version="0.48.4 r9939"
   sodipodi:docname="top2.svg">
  <metadata
     id="metadata32">
    <rdf:RDF>
      <cc:Work
         rdf:about="">
        <dc:format>image/svg+xml</dc:format>
        <dc:type
           rdf:resource="http://purl.org/dc/dcmitype/StillImage" />
        <dc:title></dc:title>
      </cc:Work>
    </rdf:RDF>
  </metadata>
  <defs
     id="defs30" />
  <sodipodi:namedview
     pagecolor="#ffffff"
     bordercolor="#666666"
     borderopacity="1"
     objecttolerance="10"
     gridtolerance="10"
     guidetolerance="10"
     inkscape:pageopacity="0"
     inkscape:pageshadow="2"
     inkscape:window-width="1311"
     inkscape:window-height="771"
     id="namedview28"
     showgrid="false"
     inkscape:document-units="in"
     units="in"
     inkscape:zoom="1.4430216"
     inkscape:cx="401.77073"
     inkscape:cy="789.12267"
     inkscape:window-x="0"
     inkscape:window-y="0"
     inkscape:window-maximized="1"
     inkscape:current-layer="svg2" />
  <!-- Front-->
  <!-- Back-->
  <!-- Left-->
  <g
     transform="translate(1125.6995,-1099.79)"
     id="g12">
    <polygon
       style="fill:none;stroke:#000000;stroke-width:0.89999998"
       points="663.12,0 708.12,0 708.12,21.24 753.12,21.24 753.12,0 798.12,0 798.12,21.24 859.68,21.24 859.68,0 900,0 900,72.81 921.24,72.81 921.24,145.62 900,145.62 900,190.62 921.24,190.62 921.24,235.62 900,235.62 900,280.62 921.24,280.62 921.24,325.62 900,325.62 900,370.62 921.24,370.62 921.24,443.43 900,443.43 900,516.24 859.68,516.24 859.68,495 798.12,495 798.12,516.24 753.12,516.24 753.12,495 708.12,495 708.12,516.24 663.12,516.24 663.12,495 618.12,495 618.12,516.24 573.12,516.24 573.12,495 528.12,495 528.12,516.24 483.12,516.24 483.12,495 438.12,495 438.12,516.24 393.12,516.24 393.12,495 348.12,495 348.12,516.24 303.12,516.24 303.12,495 258.12,495 258.12,516.24 213.12,516.24 213.12,495 168.12,495 168.12,516.24 123.12,516.24 123.12,495 61.56,495 61.56,516.24 21.24,516.24 21.24,443.43 0,443.43 0,370.62 21.24,370.62 21.24,325.62 0,325.62 0,280.62 21.24,280.62 21.24,235.62 0,235.62 0,190.62 21.24,190.62 21.24,145.62 0,145.62 0,72.81 21.24,72.81 21.24,0 61.56,0 61.56,21.24 123.12,21.24 123.12,0 168.12,0 168.12,21.24 213.12,21.24 213.12,0 258.12,0 258.12,21.24 303.12,21.24 303.12,0 348.12,0 348.12,21.24 393.12,21.24 393.12,0 438.12,0 438.12,21.24 483.12,21.24 483.12,0 528.12,0 528.12,21.24 573.12,21.24 573.12,0 618.12,0 618.12,21.24 663.12,21.24 "
       id="polygon14" />
  </g>
  <!-- Right-->
  <!-- Top-->
  <g
     transform="translate(22.5,136.25493)"
     id="g20">
    <polygon
       style="fill:none;stroke:#000000;stroke-width:0.89999998"
       points="499.68,0 499.68,21.24 540,21.24 540,61.56 561.24,61.56 561.24,123.12 540,123.12 540,168.12 561.24,168.12 561.24,213.12 540,213.12 540,258.12 561.24,258.12 561.24,303.12 540,303.12 540,348.12 561.24,348.12 561.24,393.12 540,393.12 540,438.12 561.24,438.12 561.24,483.12 540,483.12 540,528.12 561.24,528.12 561.24,573.12 540,573.12 540,618.12 561.24,618.12 561.24,663.12 540,663.12 540,708.12 561.24,708.12 561.24,753.12 540,753.12 540,798.12 561.24,798.12 561.24,859.68 540,859.68 540,900 499.68,900 499.68,921.24 438.12,921.24 438.12,900 393.12,900 393.12,921.24 348.12,921.24 348.12,900 303.12,900 303.12,921.24 258.12,921.24 258.12,900 213.12,900 213.12,921.24 168.12,921.24 168.12,900 123.12,900 123.12,921.24 61.56,921.24 61.56,900 21.24,900 21.24,859.68 0,859.68 0,798.12 21.24,798.12 21.24,753.12 0,753.12 0,708.12 21.24,708.12 21.24,663.12 0,663.12 0,618.12 21.24,618.12 21.24,573.12 0,573.12 0,528.12 21.24,528.12 21.24,483.12 0,483.12 0,438.12 21.24,438.12 21.24,393.12 0,393.12 0,348.12 21.24,348.12 21.24,303.12 0,303.12 0,258.12 21.24,258.12 21.24,213.12 0,213.12 0,168.12 21.24,168.12 21.24,123.12 0,123.12 0,61.56 21.24,61.56 21.24,21.24 61.56,21.24 61.56,0 123.12,0 123.12,21.24 168.12,21.24 168.12,0 213.12,0 213.12,21.24 258.12,21.24 258.12,0 303.12,0 303.12,21.24 348.12,21.24 348.12,0 393.12,0 393.12,21.24 438.12,21.24 438.12,0 "
       id="polygon22" />
  </g>
  <!-- Bottom-->
  <rect
     style="fill:#000000;fill-opacity:0.15384617;stroke:#ffff00;stroke-opacity:1"
     id="rect3160"
     width="520.43573"
     height="24.254654"
     x="42.965401"
     y="134.06822"
     transform="translate(0,-5e-5)" />
</svg>
